<svg width="27" height="22" viewBox="0 0 27 22" fill="none" xmlns="http://www.w3.org/2000/svg">
<path fill-rule="evenodd" clip-rule="evenodd" d="M7.13642 3.4202C7.22158 3.30181 7.31616 3.15687 7.43677 2.96144C7.48081 2.89008 7.60086 2.69202 7.69031 2.54444L7.69048 2.54416L7.79126 2.37809C8.78771 0.748122 9.51206 0 10.8182 0H15.6263C16.9324 0 17.6567 0.748122 18.6532 2.37809L18.7541 2.54438L18.7542 2.54457C18.8437 2.69214 18.9636 2.8901 19.0077 2.96144C19.1283 3.15687 19.2229 3.30181 19.308 3.4202C19.3642 3.49827 19.4132 3.56031 19.4533 3.60606H22.8384C24.83 3.60606 26.4444 5.22055 26.4444 7.21212V18.0303C26.4444 20.0219 24.83 21.6364 22.8384 21.6364H3.60606C1.61449 21.6364 0 20.0219 0 18.0303V7.21212C0 5.22055 1.61449 3.60606 3.60606 3.60606H6.99119C7.0312 3.56031 7.08026 3.49827 7.13642 3.4202ZM3.60607 6.01011C2.94221 6.01011 2.40405 6.54828 2.40405 7.21213V18.0303C2.40405 18.6942 2.94221 19.2323 3.60607 19.2323H22.8384C23.5022 19.2323 24.0404 18.6942 24.0404 18.0303V7.21213C24.0404 6.54828 23.5022 6.01011 22.8384 6.01011H19.2323C18.4338 6.01011 17.8952 5.57307 17.3564 4.82403C17.2325 4.65168 17.1097 4.46349 16.9619 4.22402C16.9112 4.14194 16.7797 3.92488 16.6894 3.77603L16.6894 3.7759L16.6021 3.63202C16.0584 2.74269 15.7305 2.40405 15.6263 2.40405H10.8182C10.7139 2.40405 10.3861 2.74269 9.84239 3.63202L9.75496 3.77611C9.66475 3.92497 9.53323 4.14196 9.48259 4.22402C9.3348 4.46349 9.21199 4.65168 9.08802 4.82403C8.54922 5.57307 8.01068 6.01011 7.21213 6.01011H3.60607ZM7.21211 12.0202C7.21211 15.3395 9.90292 18.0303 13.2222 18.0303C16.5415 18.0303 19.2323 15.3395 19.2323 12.0202C19.2323 8.70092 16.5415 6.01011 13.2222 6.01011C9.90292 6.01011 7.21211 8.70092 7.21211 12.0202ZM16.8283 12.0202C16.8283 14.0118 15.2138 15.6263 13.2222 15.6263C11.2306 15.6263 9.61616 14.0118 9.61616 12.0202C9.61616 10.0286 11.2306 8.41414 13.2222 8.41414C15.2138 8.41414 16.8283 10.0286 16.8283 12.0202Z" fill="#3E4958"/>
</svg>
