<svg width="23" height="23" viewBox="0 0 23 23" fill="none" xmlns="http://www.w3.org/2000/svg">
<path fill-rule="evenodd" clip-rule="evenodd" d="M1.94716 0L0.493391 1.45377L4.6719 5.63228C4.28264 5.95487 3.89741 6.30132 3.51643 6.66975C2.66401 7.49408 1.89285 8.37414 1.21398 9.25456C0.804327 9.78583 0.513481 10.2038 0.354238 10.4527L0 11.0066L0.354238 11.5605C0.513481 11.8095 0.804327 12.2274 1.21398 12.7587C1.89285 13.6391 2.66401 14.5191 3.51643 15.3435C6.01503 17.7597 8.69611 19.2304 11.5 19.2304C13.269 19.2304 14.9892 18.6449 16.6455 17.6059L21.0528 22.0132L22.5066 20.5594L1.94716 0ZM15.1438 16.1041L13.5888 14.5492C12.9766 14.9109 12.2625 15.1185 11.4999 15.1185C9.229 15.1185 7.38804 13.2775 7.38804 11.0066C7.38804 10.244 7.59563 9.52994 7.95738 8.91776L6.13368 7.09406C5.73544 7.41521 5.3391 7.76718 4.94565 8.14767C4.17035 8.89742 3.46367 9.70388 2.84212 10.51C2.70788 10.6841 2.58383 10.8502 2.47042 11.0066C2.58383 11.163 2.70788 11.3292 2.84212 11.5032C3.46367 12.3093 4.17035 13.1158 4.94565 13.8656C7.09766 15.9467 9.33599 17.1744 11.5 17.1744C12.7008 17.1744 13.9246 16.7963 15.1438 16.1041ZM9.51364 10.474C9.46821 10.6439 9.44398 10.8224 9.44398 11.0066C9.44398 12.1421 10.3645 13.0626 11.4999 13.0626C11.6841 13.0626 11.8627 13.0383 12.0325 12.9929L9.51364 10.474ZM19.8246 15.0064L18.3708 13.5526C19.0227 12.8936 19.622 12.1983 20.1579 11.5032C20.2921 11.3291 20.4162 11.163 20.5296 11.0066C20.4162 10.8502 20.2921 10.6841 20.1579 10.51C19.5363 9.70388 18.8297 8.89742 18.0544 8.14767C15.9023 6.06656 13.664 4.83878 11.5 4.83878C10.9631 4.83878 10.4216 4.91436 9.87804 5.05981L8.25181 3.43359C9.31314 3.01041 10.3971 2.78284 11.5 2.78284C14.3039 2.78284 16.985 4.25348 19.4836 6.66975C20.336 7.49408 21.1072 8.37413 21.786 9.25456C22.1957 9.78583 22.4865 10.2038 22.6458 10.4527L23 11.0066L22.6458 11.5605C22.4865 11.8095 22.1957 12.2274 21.786 12.7587C21.1989 13.5201 20.5427 14.2813 19.8246 15.0064Z" fill="#3E4958"/>
</svg>
