<svg width="23" height="23" viewBox="0 0 23 23" fill="none" xmlns="http://www.w3.org/2000/svg">
<path fill-rule="evenodd" clip-rule="evenodd" d="M9.88093 7.06818C10.4586 6.28965 10.6658 5.46913 10.0124 4.74487C8.54618 2.6932 7.56009 1.42445 6.94157 0.813447C5.76568 -0.348141 3.83132 -0.191018 2.81291 0.812454C2.26592 1.35143 2.08074 1.53652 1.51909 2.10699C-1.60936 5.23712 0.298532 11.8541 5.3704 16.931C10.4411 22.0067 17.0575 23.9156 20.1925 20.7788C20.7108 20.2792 21.1496 19.8401 21.4956 19.4744C22.4937 18.4195 22.6452 16.5705 21.4891 15.3692C20.8964 14.7534 19.6865 13.8149 17.5485 12.2856C16.8937 11.7 16.1173 11.8269 15.4055 12.2939C15.0631 12.5186 14.8139 12.7458 14.3434 13.2168L13.489 14.0716C13.3765 14.1842 11.8484 13.419 10.3651 11.9342C8.88095 10.4486 8.11623 8.92047 8.22823 8.80847C8.45921 8.57751 8.7442 8.29236 9.08322 7.953C9.2325 7.80358 9.30387 7.73124 9.3954 7.63504C9.58608 7.43464 9.74396 7.25277 9.88093 7.06818ZM15.0651 15.6486L15.9196 14.7935C16.1786 14.5343 16.3464 14.3749 16.4829 14.2651C18.3558 15.61 19.4405 16.4557 19.8836 16.9161C20.1496 17.1925 20.1082 17.6968 19.877 17.9412C19.557 18.2795 19.1412 18.6955 18.631 19.1876C16.6038 21.2156 11.2629 19.6747 6.94679 15.3544C2.62932 11.0327 1.08914 5.69097 3.10105 3.67795C3.66043 3.10982 3.83766 2.93269 4.37684 2.4014C4.57901 2.2022 5.12969 2.15747 5.37562 2.40041C5.85182 2.87082 6.73517 4.00188 8.03461 5.81199C7.96734 5.89551 7.88332 5.98989 7.78108 6.09735C7.70603 6.17622 7.64351 6.2396 7.50682 6.37641C7.16806 6.71551 6.88334 7.00039 6.65267 7.23104C5.19959 8.684 6.43709 11.1569 8.78868 13.5108C11.1387 15.8631 13.6125 17.1019 15.0651 15.6486Z" fill="#3E4958"/>
</svg>
