<svg width="22" height="22" viewBox="0 0 22 22" fill="none" xmlns="http://www.w3.org/2000/svg">
<path fill-rule="evenodd" clip-rule="evenodd" d="M10.8182 2.16364C13.4076 2.16364 15.6284 3.33059 17.1002 5.40909H12.9818V7.57273H20.5545V0H18.3909V3.53792C16.5247 1.27926 13.8519 0 10.8182 0C4.84346 0 0 4.84346 0 10.8182H2.16364C2.16364 6.03841 6.03841 2.16364 10.8182 2.16364ZM10.8182 19.4727C8.22872 19.4727 6.00792 18.3058 4.53613 16.2273H8.65455V14.0636H1.08182V21.6364H3.24546V18.0984C5.11171 20.3571 7.78451 21.6364 10.8182 21.6364C16.7929 21.6364 21.6364 16.7929 21.6364 10.8182H19.4727C19.4727 15.598 15.598 19.4727 10.8182 19.4727Z" fill="#3E4958"/>
</svg>
